<?xml version="1.0" encoding="utf-8"?>
<!-- Generator: Adobe Illustrator 15.0.0, SVG Export Plug-In . SVG Version: 6.00 Build 0)  -->
<!DOCTYPE svg PUBLIC "-//W3C//DTD SVG 1.1//EN" "http://www.w3.org/Graphics/SVG/1.1/DTD/svg11.dtd">
<svg version="1.1" id="Layer_1" xmlns="http://www.w3.org/2000/svg" xmlns:xlink="http://www.w3.org/1999/xlink" x="0px" y="0px"
	 width="50.815px" height="47.778px" viewBox="0 0 50.815 47.778" enable-background="new 0 0 50.815 47.778" xml:space="preserve">
<g>
	<g id="surface1">
		<path d="M39.33,0c-1.098,0-1.993,0.896-1.993,1.993v9.531L26.81,0.997c-0.779-0.778-2.087-0.778-2.866,0L0.584,24.418
			c-0.779,0.779-0.779,2.025,0,2.803C1.363,28,2.608,28,3.387,27.222L25.376,5.232l22.052,22.052
			c0.39,0.389,0.919,0.623,1.433,0.623c0.515,0,0.981-0.234,1.371-0.623c0.778-0.779,0.778-2.024,0-2.803l-6.915-6.915V1.993
			C43.316,0.896,42.421,0,41.323,0H39.33z M25.376,8.908L3.449,30.835v10.963c0,3.302,2.679,5.98,5.98,5.98h31.894
			c3.302,0,5.98-2.679,5.98-5.98V30.835L25.376,8.908z M21.39,27.845h7.974c1.098,0,1.993,0.896,1.993,1.993v11.96
			c0,1.099-0.896,1.994-1.993,1.994H21.39c-1.098,0-1.993-0.896-1.993-1.994v-11.96C19.396,28.74,20.292,27.845,21.39,27.845z"/>
	</g>
</g>
</svg>
